<svg xmlns="http://www.w3.org/2000/svg" viewBox="0 0 88.642 24.8"><defs><style>.cls-1{fill:#1b1556;}</style></defs><g id="Layer_2" data-name="Layer 2"><g id="Layer_1-2" data-name="Layer 1"><rect class="cls-1" x="13.461" y="0.151" width="2.328" height="6.819"/><path class="cls-1" d="M10.661.215,5.936,3.1a.21.21,0,0,1-.219,0L.991.215A.645.645,0,0,0,.654.12H.648A.648.648,0,0,0,0,.768v6.2H2.326V4.027a.232.232,0,0,1,.354-.2l2.648,1.62a.834.834,0,0,0,.853.008L8.975,3.818a.233.233,0,0,1,.351.2V6.97h2.326V.768A.648.648,0,0,0,11,.12H11A.648.648,0,0,0,10.661.215Z"/><path class="cls-1" d="M27.418.149H25.057V3.278a.233.233,0,0,1-.342.206L18.6.225a.643.643,0,0,0-.3-.076h0A.648.648,0,0,0,17.641.8V6.97h2.342V3.891a.233.233,0,0,1,.342-.206l6.142,3.258a.643.643,0,0,0,.3.076h0a.648.648,0,0,0,.647-.648V.149Z"/><path class="cls-1" d="M29.308,6.968V.149H30.39V6.968Z"/><path class="cls-1" d="M36.624,7.118c-2.882,0-4.926-1.367-4.926-3.559S33.755,0,36.624,0s4.938,1.367,4.938,3.559S39.542,7.118,36.624,7.118Zm0-6.207c-2.143,0-3.793.936-3.793,2.648s1.65,2.647,3.793,2.647,3.805-.923,3.805-2.647S38.766.911,36.624.911Z"/><path class="cls-1" d="M11.239,19.082A5.484,5.484,0,0,1,5.752,24.8a4.824,4.824,0,0,1-3.87-1.7v1.466H0V7.935H1.882v7.127a4.825,4.825,0,0,1,3.87-1.7A5.484,5.484,0,0,1,11.239,19.082Zm-9.472,0a3.735,3.735,0,0,0,3.766,3.95A3.739,3.739,0,0,0,9.3,19.082a3.75,3.75,0,0,0-3.765-3.939A3.732,3.732,0,0,0,1.767,19.082Z"/><path class="cls-1" d="M21.486,13.722l-.462,1.86a4.293,4.293,0,0,0-1.882-.428c-1.676,0-2.853,1.283-2.853,3.3v6.11H14.406V13.6h1.859v1.444a3.861,3.861,0,0,1,3.212-1.676A4.919,4.919,0,0,1,21.486,13.722Z"/><path class="cls-1" d="M34.4,19.082a5.632,5.632,0,0,1-5.81,5.718,5.622,5.622,0,0,1-5.8-5.718,5.622,5.622,0,0,1,5.8-5.719A5.632,5.632,0,0,1,34.4,19.082Zm-9.68,0a3.87,3.87,0,1,0,7.739,0,3.87,3.87,0,1,0-7.739,0Z"/><path class="cls-1" d="M49.536,22.593l3.118-9H54.63L50.68,24.568H48.427L45.285,15.64l-3.13,8.928H39.937L35.986,13.6h2.021l3.108,8.975,3.13-8.975h2.138Z"/><path class="cls-1" d="M64.52,16.032a6.84,6.84,0,0,0-3.535-1.016c-1.5,0-2.471.635-2.471,1.629,0,.877.8,1.282,2.125,1.443l1.27.162c2.333.312,3.708,1.294,3.708,3.107,0,2.091-1.871,3.443-4.863,3.443a7.853,7.853,0,0,1-4.62-1.409l.878-1.41a5.723,5.723,0,0,0,3.754,1.166c1.8,0,2.911-.588,2.911-1.674,0-.809-.717-1.317-2.206-1.5l-1.271-.15c-2.461-.3-3.65-1.409-3.65-3.073,0-2.1,1.744-3.373,4.412-3.373a7.937,7.937,0,0,1,4.378,1.19Z"/><path class="cls-1" d="M78.4,19.047c0,.243-.024.5-.036.7H69.731a3.575,3.575,0,0,0,3.731,3.395,5.158,5.158,0,0,0,3.385-1.3l1.005,1.293A6.245,6.245,0,0,1,73.347,24.8a5.383,5.383,0,0,1-5.568-5.718,5.376,5.376,0,0,1,5.452-5.719C76.223,13.363,78.371,15.686,78.4,19.047Zm-8.641-.82h6.711A3.273,3.273,0,0,0,73.2,15.039,3.408,3.408,0,0,0,69.754,18.227Z"/><path class="cls-1" d="M88.642,13.722l-.462,1.86a4.294,4.294,0,0,0-1.883-.428c-1.675,0-2.854,1.283-2.854,3.3v6.11H81.561V13.6h1.86v1.444a3.858,3.858,0,0,1,3.211-1.676A4.924,4.924,0,0,1,88.642,13.722Z"/></g></g></svg>